M48
;GenerationSoftware,Autodesk,EAGLE,9.6.2*%
;CreationDate,2022-02-05T13:33:24Z*%
FMAT,2
ICI,OFF
METRIC,TZ,000.000
T5C0.350
T4C1.016
T3C2.000
T2C3.200
T1C4.000
%
G90
M71
T1
X13600Y36000
X13600Y4000
X45600Y36000
T2
X2750Y46863
T3
X7620Y11430
X7620Y31750
T4
X7620Y45593
X7620Y48133
X10160Y45593
X10160Y48133
X12700Y45593
X12700Y48133
X15240Y45593
X15240Y48133
X17780Y45593
X17780Y48133
X20320Y45593
X20320Y48133
X2032Y36703
X4572Y36703
X27940Y42545
X25400Y42545
T5
X7570Y42418
M30