G04 EAGLE Gerber RS-274X export*
G75*
%MOMM*%
%FSLAX34Y34*%
%LPD*%
%INTop Copper*%
%IPPOS*%
%AMOC8*
5,1,8,0,0,1.08239X$1,22.5*%
G01*
%ADD10P,1.649562X8X22.500000*%
%ADD11C,1.524000*%
%ADD12R,1.300000X1.500000*%
%ADD13R,1.400000X1.400000*%
%ADD14R,0.500000X1.000000*%
%ADD15P,1.649562X8X292.500000*%
%ADD16C,0.756400*%
%ADD17C,0.304800*%
%ADD18C,0.152400*%


D10*
X76200Y455930D03*
X76200Y481330D03*
X101600Y455930D03*
X101600Y481330D03*
X127000Y455930D03*
X127000Y481330D03*
X152400Y455930D03*
X152400Y481330D03*
X177800Y455930D03*
X177800Y481330D03*
X203200Y455930D03*
X203200Y481330D03*
D11*
X20320Y374650D02*
X20320Y359410D01*
X45720Y359410D02*
X45720Y374650D01*
D12*
X194970Y424180D03*
X213970Y424180D03*
X130200Y424180D03*
X149200Y424180D03*
D13*
X14020Y400050D03*
X52020Y400050D03*
D14*
X89050Y412590D03*
X76050Y412590D03*
X82550Y392590D03*
D15*
X279400Y425450D03*
X254000Y425450D03*
D16*
X75700Y424180D03*
D17*
X75700Y412940D02*
X76050Y412590D01*
X75700Y412940D02*
X75700Y424180D01*
X60960Y446990D02*
X14020Y400050D01*
X76200Y481330D02*
X101600Y481330D01*
X20320Y381000D02*
X20320Y367030D01*
X20320Y381000D02*
X13970Y387350D01*
X13970Y400000D01*
X14020Y400050D01*
X71120Y481330D02*
X76200Y481330D01*
X71120Y481330D02*
X60960Y471170D01*
X60960Y446990D01*
X213970Y424180D02*
X215240Y425450D01*
X254000Y425450D01*
X83058Y394970D02*
X57100Y394970D01*
X52020Y400050D01*
X45720Y381000D02*
X45720Y367030D01*
X45720Y381000D02*
X52070Y387350D01*
X52070Y400000D01*
D18*
X52020Y400050D01*
D17*
X102246Y412590D02*
X106531Y408305D01*
X102246Y412590D02*
X89050Y412590D01*
X106531Y408305D02*
X149860Y408305D01*
X149860Y423520D02*
X149200Y424180D01*
X149860Y423520D02*
X149860Y408305D01*
X273685Y408305D01*
X279400Y414020D02*
X279400Y425450D01*
X279400Y414020D02*
X273685Y408305D01*
X76200Y443230D02*
X76200Y455930D01*
X76200Y443230D02*
X95250Y424180D01*
X130200Y424180D01*
X203200Y442570D02*
X203200Y455930D01*
X203200Y442570D02*
X194970Y434340D01*
X194970Y424180D01*
M02*
