G04 EAGLE Gerber RS-274X export*
G75*
%MOMM*%
%FSLAX34Y34*%
%LPD*%
%IN*%
%IPPOS*%
%AMOC8*
5,1,8,0,0,1.08239X$1,22.5*%
G01*
%ADD10C,0.254000*%


D10*
X-4000Y360000D02*
X-3988Y359317D01*
X-3953Y358635D01*
X-3895Y357955D01*
X-3814Y357277D01*
X-3709Y356602D01*
X-3582Y355931D01*
X-3431Y355265D01*
X-3258Y354604D01*
X-3063Y353950D01*
X-2845Y353302D01*
X-2606Y352663D01*
X-2344Y352032D01*
X-2062Y351410D01*
X-1758Y350799D01*
X-1433Y350198D01*
X-1088Y349608D01*
X-724Y349031D01*
X-339Y348466D01*
X64Y347915D01*
X486Y347378D01*
X926Y346856D01*
X1383Y346349D01*
X1858Y345858D01*
X2349Y345383D01*
X2856Y344926D01*
X3378Y344486D01*
X3915Y344064D01*
X4466Y343661D01*
X5031Y343276D01*
X5608Y342912D01*
X6198Y342567D01*
X6799Y342242D01*
X7410Y341939D01*
X8032Y341656D01*
X8663Y341394D01*
X9302Y341155D01*
X9950Y340937D01*
X10604Y340742D01*
X11265Y340569D01*
X11931Y340418D01*
X12602Y340291D01*
X13277Y340186D01*
X13955Y340105D01*
X14635Y340047D01*
X15317Y340012D01*
X16000Y340000D01*
X30000Y340000D01*
X30683Y339988D01*
X31365Y339953D01*
X32045Y339895D01*
X32723Y339814D01*
X33398Y339709D01*
X34069Y339582D01*
X34735Y339431D01*
X35396Y339258D01*
X36050Y339063D01*
X36698Y338845D01*
X37337Y338606D01*
X37968Y338344D01*
X38590Y338062D01*
X39201Y337758D01*
X39802Y337433D01*
X40392Y337088D01*
X40969Y336724D01*
X41534Y336339D01*
X42085Y335936D01*
X42622Y335514D01*
X43144Y335074D01*
X43651Y334617D01*
X44142Y334142D01*
X44617Y333651D01*
X45074Y333144D01*
X45514Y332622D01*
X45936Y332085D01*
X46339Y331534D01*
X46724Y330969D01*
X47088Y330392D01*
X47433Y329802D01*
X47758Y329201D01*
X48062Y328590D01*
X48344Y327968D01*
X48606Y327337D01*
X48845Y326698D01*
X49063Y326050D01*
X49258Y325396D01*
X49431Y324735D01*
X49582Y324069D01*
X49709Y323398D01*
X49814Y322723D01*
X49895Y322045D01*
X49953Y321365D01*
X49988Y320683D01*
X50000Y320000D01*
X50000Y20000D01*
X50012Y19317D01*
X50047Y18635D01*
X50105Y17955D01*
X50186Y17277D01*
X50291Y16602D01*
X50418Y15931D01*
X50569Y15265D01*
X50742Y14604D01*
X50937Y13950D01*
X51155Y13302D01*
X51394Y12663D01*
X51656Y12032D01*
X51939Y11410D01*
X52242Y10799D01*
X52567Y10198D01*
X52912Y9608D01*
X53276Y9031D01*
X53661Y8466D01*
X54064Y7915D01*
X54486Y7378D01*
X54926Y6856D01*
X55383Y6349D01*
X55858Y5858D01*
X56349Y5383D01*
X56856Y4926D01*
X57378Y4486D01*
X57915Y4064D01*
X58466Y3661D01*
X59031Y3276D01*
X59608Y2912D01*
X60198Y2567D01*
X60799Y2242D01*
X61410Y1939D01*
X62032Y1656D01*
X62663Y1394D01*
X63302Y1155D01*
X63950Y937D01*
X64604Y742D01*
X65265Y569D01*
X65931Y418D01*
X66602Y291D01*
X67277Y186D01*
X67955Y105D01*
X68635Y47D01*
X69317Y12D01*
X70000Y0D01*
X156358Y0D01*
X157394Y18D01*
X158430Y72D01*
X159463Y161D01*
X160492Y286D01*
X161516Y447D01*
X162534Y643D01*
X163545Y874D01*
X164547Y1140D01*
X165540Y1440D01*
X166521Y1774D01*
X167490Y2142D01*
X168446Y2544D01*
X169388Y2978D01*
X170314Y3444D01*
X171223Y3942D01*
X172115Y4471D01*
X172988Y5031D01*
X173840Y5621D01*
X174672Y6239D01*
X175483Y6886D01*
X176270Y7561D01*
X177033Y8263D01*
X177772Y8990D01*
X178485Y9743D01*
X179172Y10519D01*
X179832Y11319D01*
X180463Y12142D01*
X181066Y12985D01*
X181639Y13849D01*
X182182Y14733D01*
X182694Y15634D01*
X183175Y16553D01*
X183624Y17487D01*
X184040Y18437D01*
X184423Y19400D01*
X184772Y20377D01*
X185088Y21364D01*
X185369Y22362D01*
X185616Y23369D01*
X185827Y24384D01*
X186004Y25406D01*
X186145Y26433D01*
X186250Y27465D01*
X186320Y28499D01*
X186354Y29535D01*
X186352Y30572D01*
X186315Y31608D01*
X186241Y32642D01*
X186132Y33673D01*
X185987Y34700D01*
X185807Y35721D01*
X185592Y36735D01*
X185342Y37742D01*
X185057Y38739D01*
X184738Y39725D01*
X184385Y40700D01*
X183998Y41662D01*
X183579Y42610D01*
X183127Y43543D01*
X182643Y44460D01*
X182127Y45360D01*
X181581Y46241D01*
X181005Y47103D01*
X180399Y47945D01*
X179765Y48765D01*
X179102Y49562D01*
X178413Y50337D01*
X177697Y51086D01*
X176955Y51811D01*
X176189Y52510D01*
X175400Y53182D01*
X170370Y57462D01*
X165492Y61914D01*
X160772Y66533D01*
X156215Y71314D01*
X151827Y76249D01*
X147614Y81335D01*
X143579Y86563D01*
X139729Y91929D01*
X136067Y97425D01*
X132599Y103046D01*
X129328Y108783D01*
X126259Y114631D01*
X123394Y120581D01*
X120739Y126628D01*
X118295Y132763D01*
X116065Y138980D01*
X114053Y145270D01*
X112261Y151627D01*
X110691Y158042D01*
X109345Y164507D01*
X108224Y171016D01*
X107330Y177559D01*
X106664Y184130D01*
X106227Y190720D01*
X106019Y197321D01*
X106041Y203925D01*
X106292Y210524D01*
X106772Y217111D01*
X107481Y223677D01*
X108418Y230214D01*
X109581Y236715D01*
X110970Y243172D01*
X112582Y249577D01*
X114416Y255921D01*
X116469Y262198D01*
X118739Y268400D01*
X121223Y274519D01*
X123919Y280548D01*
X126822Y286480D01*
X129930Y292307D01*
X133238Y298023D01*
X136743Y303621D01*
X140441Y309093D01*
X144326Y314433D01*
X148395Y319635D01*
X152642Y324693D01*
X157062Y329600D01*
X161650Y334350D01*
X166400Y338938D01*
X171307Y343359D01*
X176365Y347606D01*
X181567Y351674D01*
X186907Y355560D01*
X192379Y359257D01*
X197977Y362762D01*
X203693Y366070D01*
X209520Y369178D01*
X215452Y372081D01*
X221481Y374777D01*
X227600Y377261D01*
X233802Y379531D01*
X240079Y381584D01*
X246424Y383418D01*
X252828Y385030D01*
X259285Y386419D01*
X265786Y387582D01*
X272323Y388519D01*
X278889Y389228D01*
X285476Y389708D01*
X292075Y389960D01*
X298680Y389981D01*
X305281Y389773D01*
X311870Y389336D01*
X318441Y388670D01*
X324984Y387776D01*
X331493Y386656D01*
X337958Y385309D01*
X344373Y383739D01*
X350730Y381947D01*
X357020Y379935D01*
X363237Y377706D01*
X369372Y375261D01*
X375419Y372606D01*
X381369Y369741D01*
X387217Y366672D01*
X392954Y363401D01*
X398575Y359933D01*
X404071Y356271D01*
X409437Y352421D01*
X414665Y348386D01*
X419751Y344173D01*
X424687Y339785D01*
X429467Y335228D01*
X434086Y330508D01*
X438538Y325630D01*
X442818Y320600D01*
X443490Y319811D01*
X444189Y319045D01*
X444914Y318303D01*
X445664Y317587D01*
X446438Y316898D01*
X447236Y316235D01*
X448056Y315601D01*
X448897Y314995D01*
X449759Y314419D01*
X450640Y313873D01*
X451540Y313357D01*
X452457Y312873D01*
X453390Y312421D01*
X454338Y312002D01*
X455300Y311615D01*
X456275Y311262D01*
X457262Y310943D01*
X458258Y310659D01*
X459265Y310408D01*
X460279Y310193D01*
X461300Y310013D01*
X462327Y309868D01*
X463358Y309759D01*
X464392Y309686D01*
X465428Y309648D01*
X466465Y309646D01*
X467501Y309680D01*
X468536Y309750D01*
X469567Y309855D01*
X470594Y309996D01*
X471616Y310173D01*
X472631Y310384D01*
X473638Y310631D01*
X474636Y310912D01*
X475623Y311228D01*
X476600Y311577D01*
X477563Y311960D01*
X478513Y312376D01*
X479447Y312825D01*
X480366Y313306D01*
X481268Y313818D01*
X482151Y314361D01*
X483015Y314934D01*
X483858Y315537D01*
X484681Y316168D01*
X485481Y316828D01*
X486257Y317515D01*
X487010Y318228D01*
X487737Y318967D01*
X488439Y319730D01*
X489114Y320518D01*
X489761Y321328D01*
X490379Y322160D01*
X490969Y323013D01*
X491529Y323885D01*
X492058Y324777D01*
X492556Y325686D01*
X493022Y326612D01*
X493457Y327554D01*
X493858Y328510D01*
X494226Y329479D01*
X494560Y330460D01*
X494861Y331453D01*
X495126Y332455D01*
X495357Y333466D01*
X495553Y334484D01*
X495714Y335508D01*
X495839Y336537D01*
X495928Y337570D01*
X495982Y338606D01*
X496000Y339642D01*
X496000Y423810D01*
X495988Y424493D01*
X495953Y425175D01*
X495895Y425855D01*
X495814Y426533D01*
X495709Y427208D01*
X495582Y427879D01*
X495431Y428545D01*
X495258Y429206D01*
X495063Y429860D01*
X494845Y430508D01*
X494606Y431147D01*
X494344Y431778D01*
X494062Y432400D01*
X493758Y433011D01*
X493433Y433612D01*
X493088Y434202D01*
X492724Y434779D01*
X492339Y435344D01*
X491936Y435895D01*
X491514Y436432D01*
X491074Y436954D01*
X490617Y437461D01*
X490142Y437952D01*
X489651Y438427D01*
X489144Y438884D01*
X488622Y439324D01*
X488085Y439746D01*
X487534Y440149D01*
X486969Y440534D01*
X486392Y440898D01*
X485802Y441243D01*
X485201Y441568D01*
X484590Y441872D01*
X483968Y442154D01*
X483337Y442416D01*
X482698Y442655D01*
X482050Y442873D01*
X481396Y443068D01*
X480735Y443241D01*
X480069Y443392D01*
X479398Y443519D01*
X478723Y443624D01*
X478045Y443705D01*
X477365Y443763D01*
X476683Y443798D01*
X476000Y443810D01*
X231080Y443810D01*
X230739Y443816D01*
X230398Y443833D01*
X230057Y443862D01*
X229718Y443903D01*
X229381Y443955D01*
X229045Y444019D01*
X228712Y444094D01*
X228382Y444181D01*
X228055Y444279D01*
X227731Y444387D01*
X227412Y444507D01*
X227096Y444638D01*
X226785Y444779D01*
X226479Y444931D01*
X226179Y445093D01*
X225884Y445266D01*
X225596Y445448D01*
X225313Y445640D01*
X225038Y445842D01*
X224769Y446053D01*
X224508Y446273D01*
X224255Y446502D01*
X224009Y446739D01*
X223772Y446985D01*
X223543Y447238D01*
X223323Y447499D01*
X223112Y447768D01*
X222910Y448043D01*
X222718Y448326D01*
X222536Y448614D01*
X222363Y448909D01*
X222201Y449209D01*
X222049Y449515D01*
X221908Y449826D01*
X221777Y450142D01*
X221657Y450461D01*
X221549Y450785D01*
X221451Y451112D01*
X221364Y451442D01*
X221289Y451775D01*
X221225Y452111D01*
X221173Y452448D01*
X221132Y452787D01*
X221103Y453128D01*
X221086Y453469D01*
X221080Y453810D01*
X221080Y490000D01*
X221074Y490341D01*
X221057Y490682D01*
X221028Y491023D01*
X220987Y491362D01*
X220935Y491699D01*
X220871Y492035D01*
X220796Y492368D01*
X220709Y492698D01*
X220611Y493025D01*
X220503Y493349D01*
X220383Y493669D01*
X220252Y493984D01*
X220111Y494295D01*
X219959Y494601D01*
X219797Y494901D01*
X219624Y495196D01*
X219442Y495485D01*
X219250Y495767D01*
X219048Y496042D01*
X218837Y496311D01*
X218617Y496572D01*
X218388Y496826D01*
X218151Y497071D01*
X217906Y497308D01*
X217652Y497537D01*
X217391Y497757D01*
X217122Y497968D01*
X216847Y498170D01*
X216565Y498362D01*
X216276Y498544D01*
X215981Y498717D01*
X215681Y498879D01*
X215375Y499031D01*
X215064Y499172D01*
X214749Y499303D01*
X214429Y499423D01*
X214105Y499531D01*
X213778Y499629D01*
X213448Y499716D01*
X213115Y499791D01*
X212779Y499855D01*
X212442Y499907D01*
X212103Y499948D01*
X211762Y499977D01*
X211421Y499994D01*
X211080Y500000D01*
X16000Y500000D01*
X15317Y499988D01*
X14635Y499953D01*
X13955Y499895D01*
X13277Y499814D01*
X12602Y499709D01*
X11931Y499582D01*
X11265Y499431D01*
X10604Y499258D01*
X9950Y499063D01*
X9302Y498845D01*
X8663Y498606D01*
X8032Y498344D01*
X7410Y498062D01*
X6799Y497758D01*
X6198Y497433D01*
X5608Y497088D01*
X5031Y496724D01*
X4466Y496339D01*
X3915Y495936D01*
X3378Y495514D01*
X2856Y495074D01*
X2349Y494617D01*
X1858Y494142D01*
X1383Y493651D01*
X926Y493144D01*
X486Y492622D01*
X64Y492085D01*
X-339Y491534D01*
X-724Y490969D01*
X-1088Y490392D01*
X-1433Y489802D01*
X-1758Y489201D01*
X-2062Y488590D01*
X-2344Y487968D01*
X-2606Y487337D01*
X-2845Y486698D01*
X-3063Y486050D01*
X-3258Y485396D01*
X-3431Y484735D01*
X-3582Y484069D01*
X-3709Y483398D01*
X-3814Y482723D01*
X-3895Y482045D01*
X-3953Y481365D01*
X-3988Y480683D01*
X-4000Y480000D01*
X-4000Y360000D01*
X43500Y468106D02*
X43432Y467061D01*
X43295Y466022D01*
X43090Y464995D01*
X42819Y463983D01*
X42483Y462991D01*
X42082Y462023D01*
X41618Y461084D01*
X41095Y460176D01*
X40513Y459305D01*
X39875Y458474D01*
X39184Y457687D01*
X38443Y456946D01*
X37656Y456255D01*
X36825Y455618D01*
X35954Y455036D01*
X35046Y454512D01*
X34107Y454048D01*
X33139Y453647D01*
X32147Y453311D01*
X31135Y453040D01*
X30108Y452835D01*
X29069Y452699D01*
X28024Y452630D01*
X26976Y452630D01*
X25931Y452699D01*
X24892Y452835D01*
X23865Y453040D01*
X22853Y453311D01*
X21861Y453647D01*
X20893Y454048D01*
X19954Y454512D01*
X19046Y455036D01*
X18175Y455618D01*
X17344Y456255D01*
X16557Y456946D01*
X15816Y457687D01*
X15125Y458474D01*
X14488Y459305D01*
X13906Y460176D01*
X13382Y461084D01*
X12918Y462023D01*
X12517Y462991D01*
X12181Y463983D01*
X11910Y464995D01*
X11705Y466022D01*
X11569Y467061D01*
X11500Y468106D01*
X11500Y469154D01*
X11569Y470199D01*
X11705Y471238D01*
X11910Y472265D01*
X12181Y473277D01*
X12517Y474269D01*
X12918Y475237D01*
X13382Y476176D01*
X13906Y477084D01*
X14488Y477955D01*
X15125Y478786D01*
X15816Y479573D01*
X16557Y480314D01*
X17344Y481005D01*
X18175Y481643D01*
X19046Y482225D01*
X19954Y482748D01*
X20893Y483212D01*
X21861Y483613D01*
X22853Y483949D01*
X23865Y484220D01*
X24892Y484425D01*
X25931Y484562D01*
X26976Y484630D01*
X28024Y484630D01*
X29069Y484562D01*
X30108Y484425D01*
X31135Y484220D01*
X32147Y483949D01*
X33139Y483613D01*
X34107Y483212D01*
X35046Y482748D01*
X35954Y482225D01*
X36825Y481643D01*
X37656Y481005D01*
X38443Y480314D01*
X39184Y479573D01*
X39875Y478786D01*
X40513Y477955D01*
X41095Y477084D01*
X41618Y476176D01*
X42082Y475237D01*
X42483Y474269D01*
X42819Y473277D01*
X43090Y472265D01*
X43295Y471238D01*
X43432Y470199D01*
X43500Y469154D01*
X43500Y468106D01*
X156000Y359396D02*
X155927Y358189D01*
X155781Y356989D01*
X155563Y355800D01*
X155274Y354627D01*
X154915Y353473D01*
X154486Y352343D01*
X153990Y351241D01*
X153428Y350170D01*
X152803Y349136D01*
X152116Y348141D01*
X151371Y347190D01*
X150569Y346285D01*
X149715Y345431D01*
X148810Y344629D01*
X147859Y343884D01*
X146864Y343197D01*
X145830Y342572D01*
X144759Y342010D01*
X143657Y341514D01*
X142527Y341085D01*
X141373Y340726D01*
X140200Y340437D01*
X139011Y340219D01*
X137811Y340073D01*
X136604Y340000D01*
X135396Y340000D01*
X134189Y340073D01*
X132989Y340219D01*
X131800Y340437D01*
X130627Y340726D01*
X129473Y341085D01*
X128343Y341514D01*
X127241Y342010D01*
X126170Y342572D01*
X125136Y343197D01*
X124141Y343884D01*
X123190Y344629D01*
X122285Y345431D01*
X121431Y346285D01*
X120629Y347190D01*
X119884Y348141D01*
X119197Y349136D01*
X118572Y350170D01*
X118010Y351241D01*
X117514Y352343D01*
X117085Y353473D01*
X116726Y354627D01*
X116437Y355800D01*
X116219Y356989D01*
X116073Y358189D01*
X116000Y359396D01*
X116000Y360604D01*
X116073Y361811D01*
X116219Y363011D01*
X116437Y364200D01*
X116726Y365373D01*
X117085Y366527D01*
X117514Y367657D01*
X118010Y368759D01*
X118572Y369830D01*
X119197Y370864D01*
X119884Y371859D01*
X120629Y372810D01*
X121431Y373715D01*
X122285Y374569D01*
X123190Y375371D01*
X124141Y376116D01*
X125136Y376803D01*
X126170Y377428D01*
X127241Y377990D01*
X128343Y378486D01*
X129473Y378915D01*
X130627Y379274D01*
X131800Y379563D01*
X132989Y379781D01*
X134189Y379927D01*
X135396Y380000D01*
X136604Y380000D01*
X137811Y379927D01*
X139011Y379781D01*
X140200Y379563D01*
X141373Y379274D01*
X142527Y378915D01*
X143657Y378486D01*
X144759Y377990D01*
X145830Y377428D01*
X146864Y376803D01*
X147859Y376116D01*
X148810Y375371D01*
X149715Y374569D01*
X150569Y373715D01*
X151371Y372810D01*
X152116Y371859D01*
X152803Y370864D01*
X153428Y369830D01*
X153990Y368759D01*
X154486Y367657D01*
X154915Y366527D01*
X155274Y365373D01*
X155563Y364200D01*
X155781Y363011D01*
X155927Y361811D01*
X156000Y360604D01*
X156000Y359396D01*
X156000Y39396D02*
X155927Y38189D01*
X155781Y36989D01*
X155563Y35800D01*
X155274Y34627D01*
X154915Y33473D01*
X154486Y32343D01*
X153990Y31241D01*
X153428Y30170D01*
X152803Y29136D01*
X152116Y28141D01*
X151371Y27190D01*
X150569Y26285D01*
X149715Y25431D01*
X148810Y24629D01*
X147859Y23884D01*
X146864Y23197D01*
X145830Y22572D01*
X144759Y22010D01*
X143657Y21514D01*
X142527Y21085D01*
X141373Y20726D01*
X140200Y20437D01*
X139011Y20219D01*
X137811Y20073D01*
X136604Y20000D01*
X135396Y20000D01*
X134189Y20073D01*
X132989Y20219D01*
X131800Y20437D01*
X130627Y20726D01*
X129473Y21085D01*
X128343Y21514D01*
X127241Y22010D01*
X126170Y22572D01*
X125136Y23197D01*
X124141Y23884D01*
X123190Y24629D01*
X122285Y25431D01*
X121431Y26285D01*
X120629Y27190D01*
X119884Y28141D01*
X119197Y29136D01*
X118572Y30170D01*
X118010Y31241D01*
X117514Y32343D01*
X117085Y33473D01*
X116726Y34627D01*
X116437Y35800D01*
X116219Y36989D01*
X116073Y38189D01*
X116000Y39396D01*
X116000Y40604D01*
X116073Y41811D01*
X116219Y43011D01*
X116437Y44200D01*
X116726Y45373D01*
X117085Y46527D01*
X117514Y47657D01*
X118010Y48759D01*
X118572Y49830D01*
X119197Y50864D01*
X119884Y51859D01*
X120629Y52810D01*
X121431Y53715D01*
X122285Y54569D01*
X123190Y55371D01*
X124141Y56116D01*
X125136Y56803D01*
X126170Y57428D01*
X127241Y57990D01*
X128343Y58486D01*
X129473Y58915D01*
X130627Y59274D01*
X131800Y59563D01*
X132989Y59781D01*
X134189Y59927D01*
X135396Y60000D01*
X136604Y60000D01*
X137811Y59927D01*
X139011Y59781D01*
X140200Y59563D01*
X141373Y59274D01*
X142527Y58915D01*
X143657Y58486D01*
X144759Y57990D01*
X145830Y57428D01*
X146864Y56803D01*
X147859Y56116D01*
X148810Y55371D01*
X149715Y54569D01*
X150569Y53715D01*
X151371Y52810D01*
X152116Y51859D01*
X152803Y50864D01*
X153428Y49830D01*
X153990Y48759D01*
X154486Y47657D01*
X154915Y46527D01*
X155274Y45373D01*
X155563Y44200D01*
X155781Y43011D01*
X155927Y41811D01*
X156000Y40604D01*
X156000Y39396D01*
X476000Y359396D02*
X475927Y358189D01*
X475781Y356989D01*
X475563Y355800D01*
X475274Y354627D01*
X474915Y353473D01*
X474486Y352343D01*
X473990Y351241D01*
X473428Y350170D01*
X472803Y349136D01*
X472116Y348141D01*
X471371Y347190D01*
X470569Y346285D01*
X469715Y345431D01*
X468810Y344629D01*
X467859Y343884D01*
X466864Y343197D01*
X465830Y342572D01*
X464759Y342010D01*
X463657Y341514D01*
X462527Y341085D01*
X461373Y340726D01*
X460200Y340437D01*
X459011Y340219D01*
X457811Y340073D01*
X456604Y340000D01*
X455396Y340000D01*
X454189Y340073D01*
X452989Y340219D01*
X451800Y340437D01*
X450627Y340726D01*
X449473Y341085D01*
X448343Y341514D01*
X447241Y342010D01*
X446170Y342572D01*
X445136Y343197D01*
X444141Y343884D01*
X443190Y344629D01*
X442285Y345431D01*
X441431Y346285D01*
X440629Y347190D01*
X439884Y348141D01*
X439197Y349136D01*
X438572Y350170D01*
X438010Y351241D01*
X437514Y352343D01*
X437085Y353473D01*
X436726Y354627D01*
X436437Y355800D01*
X436219Y356989D01*
X436073Y358189D01*
X436000Y359396D01*
X436000Y360604D01*
X436073Y361811D01*
X436219Y363011D01*
X436437Y364200D01*
X436726Y365373D01*
X437085Y366527D01*
X437514Y367657D01*
X438010Y368759D01*
X438572Y369830D01*
X439197Y370864D01*
X439884Y371859D01*
X440629Y372810D01*
X441431Y373715D01*
X442285Y374569D01*
X443190Y375371D01*
X444141Y376116D01*
X445136Y376803D01*
X446170Y377428D01*
X447241Y377990D01*
X448343Y378486D01*
X449473Y378915D01*
X450627Y379274D01*
X451800Y379563D01*
X452989Y379781D01*
X454189Y379927D01*
X455396Y380000D01*
X456604Y380000D01*
X457811Y379927D01*
X459011Y379781D01*
X460200Y379563D01*
X461373Y379274D01*
X462527Y378915D01*
X463657Y378486D01*
X464759Y377990D01*
X465830Y377428D01*
X466864Y376803D01*
X467859Y376116D01*
X468810Y375371D01*
X469715Y374569D01*
X470569Y373715D01*
X471371Y372810D01*
X472116Y371859D01*
X472803Y370864D01*
X473428Y369830D01*
X473990Y368759D01*
X474486Y367657D01*
X474915Y366527D01*
X475274Y365373D01*
X475563Y364200D01*
X475781Y363011D01*
X475927Y361811D01*
X476000Y360604D01*
X476000Y359396D01*
X86200Y113863D02*
X86124Y112994D01*
X85972Y112134D01*
X85746Y111290D01*
X85448Y110470D01*
X85079Y109678D01*
X84642Y108922D01*
X84141Y108207D01*
X83580Y107538D01*
X82962Y106920D01*
X82293Y106359D01*
X81578Y105858D01*
X80822Y105421D01*
X80030Y105052D01*
X79210Y104754D01*
X78366Y104528D01*
X77507Y104376D01*
X76637Y104300D01*
X75763Y104300D01*
X74894Y104376D01*
X74034Y104528D01*
X73190Y104754D01*
X72370Y105052D01*
X71578Y105421D01*
X70822Y105858D01*
X70107Y106359D01*
X69438Y106920D01*
X68820Y107538D01*
X68259Y108207D01*
X67758Y108922D01*
X67321Y109678D01*
X66952Y110470D01*
X66654Y111290D01*
X66428Y112134D01*
X66276Y112994D01*
X66200Y113863D01*
X66200Y114737D01*
X66276Y115607D01*
X66428Y116466D01*
X66654Y117310D01*
X66952Y118130D01*
X67321Y118922D01*
X67758Y119678D01*
X68259Y120393D01*
X68820Y121062D01*
X69438Y121680D01*
X70107Y122241D01*
X70822Y122742D01*
X71578Y123179D01*
X72370Y123548D01*
X73190Y123846D01*
X74034Y124072D01*
X74894Y124224D01*
X75763Y124300D01*
X76637Y124300D01*
X77507Y124224D01*
X78366Y124072D01*
X79210Y123846D01*
X80030Y123548D01*
X80822Y123179D01*
X81578Y122742D01*
X82293Y122241D01*
X82962Y121680D01*
X83580Y121062D01*
X84141Y120393D01*
X84642Y119678D01*
X85079Y118922D01*
X85448Y118130D01*
X85746Y117310D01*
X85972Y116466D01*
X86124Y115607D01*
X86200Y114737D01*
X86200Y113863D01*
X86200Y317063D02*
X86124Y316194D01*
X85972Y315334D01*
X85746Y314490D01*
X85448Y313670D01*
X85079Y312878D01*
X84642Y312122D01*
X84141Y311407D01*
X83580Y310738D01*
X82962Y310120D01*
X82293Y309559D01*
X81578Y309058D01*
X80822Y308621D01*
X80030Y308252D01*
X79210Y307954D01*
X78366Y307728D01*
X77507Y307576D01*
X76637Y307500D01*
X75763Y307500D01*
X74894Y307576D01*
X74034Y307728D01*
X73190Y307954D01*
X72370Y308252D01*
X71578Y308621D01*
X70822Y309058D01*
X70107Y309559D01*
X69438Y310120D01*
X68820Y310738D01*
X68259Y311407D01*
X67758Y312122D01*
X67321Y312878D01*
X66952Y313670D01*
X66654Y314490D01*
X66428Y315334D01*
X66276Y316194D01*
X66200Y317063D01*
X66200Y317937D01*
X66276Y318807D01*
X66428Y319666D01*
X66654Y320510D01*
X66952Y321330D01*
X67321Y322122D01*
X67758Y322878D01*
X68259Y323593D01*
X68820Y324262D01*
X69438Y324880D01*
X70107Y325441D01*
X70822Y325942D01*
X71578Y326379D01*
X72370Y326748D01*
X73190Y327046D01*
X74034Y327272D01*
X74894Y327424D01*
X75763Y327500D01*
X76637Y327500D01*
X77507Y327424D01*
X78366Y327272D01*
X79210Y327046D01*
X80030Y326748D01*
X80822Y326379D01*
X81578Y325942D01*
X82293Y325441D01*
X82962Y324880D01*
X83580Y324262D01*
X84141Y323593D01*
X84642Y322878D01*
X85079Y322122D01*
X85448Y321330D01*
X85746Y320510D01*
X85972Y319666D01*
X86124Y318807D01*
X86200Y317937D01*
X86200Y317063D01*
M02*
