G04 EAGLE Gerber RS-274X export*
G75*
%MOMM*%
%FSLAX34Y34*%
%LPD*%
%INSilkscreen Top*%
%IPPOS*%
%AMOC8*
5,1,8,0,0,1.08239X$1,22.5*%
G01*
%ADD10C,0.152400*%
%ADD11C,0.127000*%
%ADD12C,0.101600*%
%ADD13C,0.200000*%


D10*
X379222Y416052D02*
X379222Y432308D01*
X383738Y432308D01*
X383871Y432306D01*
X384003Y432300D01*
X384135Y432290D01*
X384267Y432277D01*
X384399Y432259D01*
X384529Y432238D01*
X384660Y432213D01*
X384789Y432184D01*
X384917Y432151D01*
X385045Y432115D01*
X385171Y432075D01*
X385296Y432031D01*
X385420Y431983D01*
X385542Y431932D01*
X385663Y431877D01*
X385782Y431819D01*
X385900Y431757D01*
X386015Y431692D01*
X386129Y431623D01*
X386240Y431552D01*
X386349Y431476D01*
X386456Y431398D01*
X386561Y431317D01*
X386663Y431232D01*
X386763Y431145D01*
X386860Y431055D01*
X386955Y430962D01*
X387046Y430866D01*
X387135Y430768D01*
X387221Y430667D01*
X387304Y430563D01*
X387384Y430457D01*
X387460Y430349D01*
X387534Y430239D01*
X387604Y430126D01*
X387671Y430012D01*
X387734Y429895D01*
X387794Y429777D01*
X387851Y429657D01*
X387904Y429535D01*
X387953Y429412D01*
X387999Y429288D01*
X388041Y429162D01*
X388079Y429035D01*
X388114Y428907D01*
X388145Y428778D01*
X388172Y428649D01*
X388195Y428518D01*
X388215Y428387D01*
X388230Y428255D01*
X388242Y428123D01*
X388250Y427991D01*
X388254Y427858D01*
X388254Y427726D01*
X388250Y427593D01*
X388242Y427461D01*
X388230Y427329D01*
X388215Y427197D01*
X388195Y427066D01*
X388172Y426935D01*
X388145Y426806D01*
X388114Y426677D01*
X388079Y426549D01*
X388041Y426422D01*
X387999Y426296D01*
X387953Y426172D01*
X387904Y426049D01*
X387851Y425927D01*
X387794Y425807D01*
X387734Y425689D01*
X387671Y425572D01*
X387604Y425458D01*
X387534Y425345D01*
X387460Y425235D01*
X387384Y425127D01*
X387304Y425021D01*
X387221Y424917D01*
X387135Y424816D01*
X387046Y424718D01*
X386955Y424622D01*
X386860Y424529D01*
X386763Y424439D01*
X386663Y424352D01*
X386561Y424267D01*
X386456Y424186D01*
X386349Y424108D01*
X386240Y424032D01*
X386129Y423961D01*
X386015Y423892D01*
X385900Y423827D01*
X385782Y423765D01*
X385663Y423707D01*
X385542Y423652D01*
X385420Y423601D01*
X385296Y423553D01*
X385171Y423509D01*
X385045Y423469D01*
X384917Y423433D01*
X384789Y423400D01*
X384660Y423371D01*
X384529Y423346D01*
X384399Y423325D01*
X384267Y423307D01*
X384135Y423294D01*
X384003Y423284D01*
X383871Y423278D01*
X383738Y423276D01*
X383738Y423277D02*
X379222Y423277D01*
X393947Y426889D02*
X393947Y416052D01*
X393496Y431405D02*
X393496Y432308D01*
X394399Y432308D01*
X394399Y431405D01*
X393496Y431405D01*
X400925Y432308D02*
X400925Y416052D01*
X400925Y432308D02*
X408149Y432308D01*
X408149Y425083D02*
X400925Y425083D01*
X416869Y422374D02*
X420933Y422374D01*
X416869Y422374D02*
X416757Y422372D01*
X416646Y422366D01*
X416535Y422356D01*
X416424Y422343D01*
X416314Y422325D01*
X416205Y422303D01*
X416096Y422278D01*
X415988Y422249D01*
X415882Y422216D01*
X415776Y422179D01*
X415672Y422139D01*
X415570Y422095D01*
X415469Y422047D01*
X415370Y421996D01*
X415272Y421941D01*
X415177Y421883D01*
X415084Y421822D01*
X414993Y421757D01*
X414904Y421689D01*
X414818Y421618D01*
X414735Y421545D01*
X414654Y421468D01*
X414575Y421388D01*
X414500Y421306D01*
X414428Y421221D01*
X414358Y421134D01*
X414292Y421044D01*
X414229Y420952D01*
X414169Y420857D01*
X414113Y420761D01*
X414060Y420663D01*
X414011Y420563D01*
X413965Y420461D01*
X413923Y420358D01*
X413884Y420253D01*
X413849Y420147D01*
X413818Y420040D01*
X413791Y419932D01*
X413767Y419823D01*
X413748Y419713D01*
X413732Y419603D01*
X413720Y419492D01*
X413712Y419380D01*
X413708Y419269D01*
X413708Y419157D01*
X413712Y419046D01*
X413720Y418934D01*
X413732Y418823D01*
X413748Y418713D01*
X413767Y418603D01*
X413791Y418494D01*
X413818Y418386D01*
X413849Y418279D01*
X413884Y418173D01*
X413923Y418068D01*
X413965Y417965D01*
X414011Y417863D01*
X414060Y417763D01*
X414113Y417665D01*
X414169Y417569D01*
X414229Y417474D01*
X414292Y417382D01*
X414358Y417292D01*
X414428Y417205D01*
X414500Y417120D01*
X414575Y417038D01*
X414654Y416958D01*
X414735Y416881D01*
X414818Y416808D01*
X414904Y416737D01*
X414993Y416669D01*
X415084Y416604D01*
X415177Y416543D01*
X415272Y416485D01*
X415370Y416430D01*
X415469Y416379D01*
X415570Y416331D01*
X415672Y416287D01*
X415776Y416247D01*
X415882Y416210D01*
X415988Y416177D01*
X416096Y416148D01*
X416205Y416123D01*
X416314Y416101D01*
X416424Y416083D01*
X416535Y416070D01*
X416646Y416060D01*
X416757Y416054D01*
X416869Y416052D01*
X420933Y416052D01*
X420933Y424180D01*
X420931Y424281D01*
X420925Y424382D01*
X420916Y424483D01*
X420903Y424584D01*
X420886Y424684D01*
X420865Y424783D01*
X420841Y424881D01*
X420813Y424978D01*
X420781Y425075D01*
X420746Y425170D01*
X420707Y425263D01*
X420665Y425355D01*
X420619Y425446D01*
X420570Y425535D01*
X420518Y425621D01*
X420462Y425706D01*
X420404Y425789D01*
X420342Y425869D01*
X420277Y425947D01*
X420210Y426023D01*
X420140Y426096D01*
X420067Y426166D01*
X419991Y426233D01*
X419913Y426298D01*
X419833Y426360D01*
X419750Y426418D01*
X419665Y426474D01*
X419579Y426526D01*
X419490Y426575D01*
X419399Y426621D01*
X419307Y426663D01*
X419214Y426702D01*
X419119Y426737D01*
X419022Y426769D01*
X418925Y426797D01*
X418827Y426821D01*
X418728Y426842D01*
X418628Y426859D01*
X418527Y426872D01*
X418426Y426881D01*
X418325Y426887D01*
X418224Y426889D01*
X414612Y426889D01*
X428371Y426889D02*
X428371Y416052D01*
X428371Y426889D02*
X432886Y426889D01*
X432990Y426887D01*
X433093Y426881D01*
X433197Y426871D01*
X433300Y426857D01*
X433402Y426839D01*
X433503Y426818D01*
X433604Y426792D01*
X433703Y426763D01*
X433802Y426730D01*
X433899Y426693D01*
X433994Y426652D01*
X434088Y426608D01*
X434180Y426560D01*
X434270Y426509D01*
X434359Y426454D01*
X434445Y426396D01*
X434528Y426334D01*
X434610Y426270D01*
X434688Y426202D01*
X434764Y426132D01*
X434838Y426059D01*
X434908Y425982D01*
X434976Y425904D01*
X435040Y425822D01*
X435102Y425739D01*
X435160Y425653D01*
X435215Y425564D01*
X435266Y425474D01*
X435314Y425382D01*
X435358Y425288D01*
X435399Y425193D01*
X435436Y425096D01*
X435469Y424997D01*
X435498Y424898D01*
X435524Y424797D01*
X435545Y424696D01*
X435563Y424594D01*
X435577Y424491D01*
X435587Y424387D01*
X435593Y424284D01*
X435595Y424180D01*
X435596Y424180D02*
X435596Y416052D01*
X450915Y428696D02*
X455430Y432308D01*
X455430Y416052D01*
X450915Y416052D02*
X459946Y416052D01*
X465920Y416052D02*
X465920Y416955D01*
X466824Y416955D01*
X466824Y416052D01*
X465920Y416052D01*
X472798Y424180D02*
X472802Y424500D01*
X472813Y424819D01*
X472832Y425139D01*
X472859Y425457D01*
X472893Y425775D01*
X472935Y426092D01*
X472985Y426408D01*
X473042Y426723D01*
X473106Y427036D01*
X473178Y427348D01*
X473257Y427658D01*
X473344Y427965D01*
X473438Y428271D01*
X473539Y428574D01*
X473648Y428875D01*
X473763Y429173D01*
X473886Y429469D01*
X474016Y429761D01*
X474153Y430050D01*
X474153Y430051D02*
X474192Y430159D01*
X474235Y430266D01*
X474281Y430371D01*
X474332Y430475D01*
X474385Y430577D01*
X474442Y430677D01*
X474503Y430775D01*
X474567Y430870D01*
X474634Y430964D01*
X474705Y431055D01*
X474778Y431144D01*
X474855Y431230D01*
X474934Y431313D01*
X475016Y431394D01*
X475101Y431472D01*
X475189Y431546D01*
X475279Y431618D01*
X475371Y431686D01*
X475466Y431752D01*
X475563Y431814D01*
X475662Y431872D01*
X475764Y431928D01*
X475866Y431979D01*
X475971Y432027D01*
X476077Y432072D01*
X476185Y432113D01*
X476294Y432150D01*
X476404Y432183D01*
X476516Y432212D01*
X476628Y432238D01*
X476741Y432260D01*
X476855Y432277D01*
X476969Y432291D01*
X477084Y432301D01*
X477199Y432307D01*
X477314Y432309D01*
X477314Y432308D02*
X477429Y432306D01*
X477544Y432300D01*
X477659Y432290D01*
X477773Y432276D01*
X477887Y432259D01*
X478000Y432237D01*
X478112Y432211D01*
X478224Y432182D01*
X478334Y432149D01*
X478443Y432112D01*
X478551Y432071D01*
X478657Y432026D01*
X478762Y431978D01*
X478864Y431927D01*
X478965Y431871D01*
X479065Y431813D01*
X479162Y431751D01*
X479256Y431686D01*
X479349Y431617D01*
X479439Y431545D01*
X479527Y431471D01*
X479612Y431393D01*
X479694Y431312D01*
X479773Y431229D01*
X479850Y431143D01*
X479923Y431054D01*
X479994Y430963D01*
X480061Y430869D01*
X480125Y430774D01*
X480186Y430676D01*
X480243Y430576D01*
X480296Y430474D01*
X480347Y430370D01*
X480393Y430265D01*
X480436Y430158D01*
X480475Y430050D01*
X480474Y430050D02*
X480611Y429761D01*
X480741Y429469D01*
X480864Y429173D01*
X480979Y428875D01*
X481088Y428574D01*
X481189Y428271D01*
X481283Y427965D01*
X481370Y427658D01*
X481449Y427348D01*
X481521Y427036D01*
X481585Y426723D01*
X481642Y426408D01*
X481692Y426092D01*
X481734Y425775D01*
X481768Y425457D01*
X481795Y425139D01*
X481814Y424819D01*
X481825Y424500D01*
X481829Y424180D01*
X472799Y424180D02*
X472803Y423860D01*
X472814Y423541D01*
X472833Y423221D01*
X472860Y422903D01*
X472894Y422585D01*
X472936Y422268D01*
X472986Y421952D01*
X473043Y421637D01*
X473107Y421324D01*
X473179Y421012D01*
X473258Y420702D01*
X473345Y420395D01*
X473439Y420089D01*
X473540Y419786D01*
X473649Y419485D01*
X473764Y419187D01*
X473887Y418891D01*
X474017Y418599D01*
X474154Y418310D01*
X474153Y418310D02*
X474192Y418202D01*
X474235Y418095D01*
X474281Y417990D01*
X474332Y417886D01*
X474385Y417784D01*
X474442Y417684D01*
X474503Y417586D01*
X474567Y417491D01*
X474634Y417397D01*
X474705Y417306D01*
X474778Y417217D01*
X474855Y417131D01*
X474934Y417048D01*
X475016Y416967D01*
X475101Y416889D01*
X475189Y416815D01*
X475279Y416743D01*
X475372Y416674D01*
X475466Y416609D01*
X475563Y416547D01*
X475663Y416489D01*
X475764Y416433D01*
X475866Y416382D01*
X475971Y416334D01*
X476077Y416289D01*
X476185Y416248D01*
X476294Y416211D01*
X476404Y416178D01*
X476516Y416149D01*
X476628Y416123D01*
X476741Y416101D01*
X476855Y416084D01*
X476969Y416070D01*
X477084Y416060D01*
X477199Y416054D01*
X477314Y416052D01*
X480474Y418310D02*
X480611Y418599D01*
X480741Y418891D01*
X480864Y419187D01*
X480979Y419485D01*
X481088Y419786D01*
X481189Y420089D01*
X481283Y420395D01*
X481370Y420702D01*
X481449Y421012D01*
X481521Y421324D01*
X481585Y421637D01*
X481642Y421952D01*
X481692Y422268D01*
X481734Y422585D01*
X481768Y422903D01*
X481795Y423221D01*
X481814Y423541D01*
X481825Y423860D01*
X481829Y424180D01*
X480475Y418310D02*
X480436Y418202D01*
X480393Y418095D01*
X480347Y417990D01*
X480296Y417886D01*
X480243Y417784D01*
X480186Y417684D01*
X480125Y417586D01*
X480061Y417491D01*
X479994Y417397D01*
X479923Y417306D01*
X479850Y417217D01*
X479773Y417131D01*
X479694Y417048D01*
X479612Y416967D01*
X479527Y416889D01*
X479439Y416815D01*
X479349Y416743D01*
X479256Y416674D01*
X479162Y416609D01*
X479065Y416547D01*
X478965Y416489D01*
X478864Y416433D01*
X478761Y416382D01*
X478657Y416334D01*
X478551Y416289D01*
X478443Y416248D01*
X478334Y416211D01*
X478224Y416178D01*
X478112Y416149D01*
X478000Y416123D01*
X477887Y416101D01*
X477773Y416084D01*
X477659Y416070D01*
X477544Y416060D01*
X477429Y416054D01*
X477314Y416052D01*
X473701Y419664D02*
X480926Y428696D01*
X69850Y443230D02*
X63500Y449580D01*
X82550Y443230D02*
X88900Y449580D01*
X95250Y443230D01*
X107950Y443230D02*
X114300Y449580D01*
X120650Y443230D01*
X133350Y443230D02*
X139700Y449580D01*
X146050Y443230D01*
X158750Y443230D02*
X165100Y449580D01*
X171450Y443230D01*
X184150Y443230D02*
X190500Y449580D01*
X63500Y449580D02*
X63500Y487680D01*
X69850Y494030D01*
X82550Y494030D01*
X88900Y487680D01*
X95250Y494030D01*
X107950Y494030D01*
X114300Y487680D01*
X120650Y494030D01*
X133350Y494030D01*
X139700Y487680D01*
X146050Y494030D01*
X158750Y494030D01*
X165100Y487680D01*
X171450Y494030D01*
X184150Y494030D01*
X190500Y487680D01*
X88900Y487680D02*
X88900Y449580D01*
X114300Y449580D02*
X114300Y487680D01*
X139700Y487680D02*
X139700Y449580D01*
X165100Y449580D02*
X165100Y487680D01*
X190500Y487680D02*
X190500Y449580D01*
X184150Y443230D02*
X171450Y443230D01*
X158750Y443230D02*
X146050Y443230D01*
X133350Y443230D02*
X120650Y443230D01*
X107950Y443230D02*
X95250Y443230D01*
X82550Y443230D02*
X69850Y443230D01*
X190500Y449580D02*
X196850Y443230D01*
X209550Y443230D02*
X215900Y449580D01*
X190500Y487680D02*
X196850Y494030D01*
X209550Y494030D01*
X215900Y487680D01*
X215900Y449580D01*
X209550Y443230D02*
X196850Y443230D01*
X26670Y379730D02*
X13970Y379730D01*
X26670Y379730D02*
X33020Y373380D01*
X33020Y360680D01*
X26670Y354330D01*
X7620Y360680D02*
X7620Y373380D01*
X13970Y379730D01*
X7620Y360680D02*
X13970Y354330D01*
X26670Y354330D01*
X33020Y373380D02*
X39370Y379730D01*
X52070Y379730D01*
X58420Y373380D01*
X58420Y360680D01*
X52070Y354330D01*
X39370Y354330D01*
X33020Y360680D01*
D11*
X45593Y350393D02*
X45593Y341503D01*
X45591Y341403D01*
X45585Y341304D01*
X45575Y341204D01*
X45562Y341106D01*
X45544Y341007D01*
X45523Y340910D01*
X45498Y340814D01*
X45469Y340718D01*
X45436Y340624D01*
X45400Y340531D01*
X45360Y340440D01*
X45316Y340350D01*
X45269Y340262D01*
X45219Y340176D01*
X45165Y340092D01*
X45108Y340010D01*
X45048Y339931D01*
X44984Y339853D01*
X44918Y339779D01*
X44849Y339707D01*
X44777Y339638D01*
X44703Y339572D01*
X44625Y339508D01*
X44546Y339448D01*
X44464Y339391D01*
X44380Y339337D01*
X44294Y339287D01*
X44206Y339240D01*
X44116Y339196D01*
X44025Y339156D01*
X43932Y339120D01*
X43838Y339087D01*
X43742Y339058D01*
X43646Y339033D01*
X43549Y339012D01*
X43450Y338994D01*
X43352Y338981D01*
X43252Y338971D01*
X43153Y338965D01*
X43053Y338963D01*
X41783Y338963D01*
X51573Y338963D02*
X51573Y350393D01*
X54748Y350393D01*
X54859Y350391D01*
X54969Y350385D01*
X55080Y350376D01*
X55190Y350362D01*
X55299Y350345D01*
X55408Y350324D01*
X55516Y350299D01*
X55623Y350270D01*
X55729Y350238D01*
X55834Y350202D01*
X55937Y350162D01*
X56039Y350119D01*
X56140Y350072D01*
X56239Y350021D01*
X56336Y349968D01*
X56430Y349911D01*
X56523Y349850D01*
X56614Y349787D01*
X56703Y349720D01*
X56789Y349650D01*
X56872Y349577D01*
X56954Y349502D01*
X57032Y349424D01*
X57107Y349342D01*
X57180Y349259D01*
X57250Y349173D01*
X57317Y349084D01*
X57380Y348993D01*
X57441Y348900D01*
X57498Y348805D01*
X57551Y348709D01*
X57602Y348610D01*
X57649Y348509D01*
X57692Y348407D01*
X57732Y348304D01*
X57768Y348199D01*
X57800Y348093D01*
X57829Y347986D01*
X57854Y347878D01*
X57875Y347769D01*
X57892Y347660D01*
X57906Y347550D01*
X57915Y347439D01*
X57921Y347329D01*
X57923Y347218D01*
X57921Y347107D01*
X57915Y346997D01*
X57906Y346886D01*
X57892Y346776D01*
X57875Y346667D01*
X57854Y346558D01*
X57829Y346450D01*
X57800Y346343D01*
X57768Y346237D01*
X57732Y346132D01*
X57692Y346029D01*
X57649Y345927D01*
X57602Y345826D01*
X57551Y345727D01*
X57498Y345630D01*
X57441Y345536D01*
X57380Y345443D01*
X57317Y345352D01*
X57250Y345263D01*
X57180Y345177D01*
X57107Y345094D01*
X57032Y345012D01*
X56954Y344934D01*
X56872Y344859D01*
X56789Y344786D01*
X56703Y344716D01*
X56614Y344649D01*
X56523Y344586D01*
X56430Y344525D01*
X56335Y344468D01*
X56239Y344415D01*
X56140Y344364D01*
X56039Y344317D01*
X55937Y344274D01*
X55834Y344234D01*
X55729Y344198D01*
X55623Y344166D01*
X55516Y344137D01*
X55408Y344112D01*
X55299Y344091D01*
X55190Y344074D01*
X55080Y344060D01*
X54969Y344051D01*
X54859Y344045D01*
X54748Y344043D01*
X51573Y344043D01*
X65924Y350394D02*
X66028Y350392D01*
X66133Y350386D01*
X66237Y350377D01*
X66340Y350364D01*
X66443Y350346D01*
X66545Y350326D01*
X66647Y350301D01*
X66747Y350273D01*
X66847Y350241D01*
X66945Y350205D01*
X67042Y350166D01*
X67137Y350124D01*
X67231Y350078D01*
X67323Y350028D01*
X67413Y349976D01*
X67501Y349920D01*
X67587Y349860D01*
X67671Y349798D01*
X67752Y349733D01*
X67831Y349665D01*
X67908Y349593D01*
X67981Y349520D01*
X68053Y349443D01*
X68121Y349364D01*
X68186Y349283D01*
X68248Y349199D01*
X68308Y349113D01*
X68364Y349025D01*
X68416Y348935D01*
X68466Y348843D01*
X68512Y348749D01*
X68554Y348654D01*
X68593Y348557D01*
X68629Y348459D01*
X68661Y348359D01*
X68689Y348259D01*
X68714Y348157D01*
X68734Y348055D01*
X68752Y347952D01*
X68765Y347849D01*
X68774Y347745D01*
X68780Y347640D01*
X68782Y347536D01*
X65924Y350393D02*
X65806Y350391D01*
X65687Y350385D01*
X65569Y350376D01*
X65452Y350363D01*
X65335Y350345D01*
X65218Y350325D01*
X65102Y350300D01*
X64987Y350272D01*
X64874Y350239D01*
X64761Y350204D01*
X64649Y350164D01*
X64539Y350122D01*
X64430Y350075D01*
X64322Y350025D01*
X64217Y349972D01*
X64113Y349915D01*
X64011Y349855D01*
X63911Y349792D01*
X63813Y349725D01*
X63717Y349656D01*
X63624Y349583D01*
X63533Y349507D01*
X63444Y349429D01*
X63358Y349347D01*
X63275Y349263D01*
X63194Y349177D01*
X63117Y349087D01*
X63042Y348996D01*
X62970Y348902D01*
X62901Y348805D01*
X62836Y348707D01*
X62773Y348606D01*
X62714Y348503D01*
X62658Y348399D01*
X62606Y348293D01*
X62557Y348185D01*
X62512Y348076D01*
X62470Y347965D01*
X62432Y347853D01*
X67830Y345314D02*
X67906Y345389D01*
X67981Y345468D01*
X68052Y345549D01*
X68121Y345633D01*
X68186Y345719D01*
X68248Y345807D01*
X68308Y345897D01*
X68364Y345989D01*
X68417Y346084D01*
X68466Y346180D01*
X68512Y346278D01*
X68555Y346377D01*
X68594Y346478D01*
X68629Y346580D01*
X68661Y346683D01*
X68689Y346787D01*
X68714Y346892D01*
X68735Y346999D01*
X68752Y347105D01*
X68765Y347212D01*
X68774Y347320D01*
X68780Y347428D01*
X68782Y347536D01*
X67829Y345313D02*
X62432Y338963D01*
X68782Y338963D01*
D12*
X193548Y400558D02*
X193548Y412242D01*
X196794Y412242D01*
X196907Y412240D01*
X197020Y412234D01*
X197133Y412224D01*
X197246Y412210D01*
X197358Y412193D01*
X197469Y412171D01*
X197579Y412146D01*
X197689Y412116D01*
X197797Y412083D01*
X197904Y412046D01*
X198010Y412006D01*
X198114Y411961D01*
X198217Y411913D01*
X198318Y411862D01*
X198417Y411807D01*
X198514Y411749D01*
X198609Y411687D01*
X198702Y411622D01*
X198792Y411554D01*
X198880Y411483D01*
X198966Y411408D01*
X199049Y411331D01*
X199129Y411251D01*
X199206Y411168D01*
X199281Y411082D01*
X199352Y410994D01*
X199420Y410904D01*
X199485Y410811D01*
X199547Y410716D01*
X199605Y410619D01*
X199660Y410520D01*
X199711Y410419D01*
X199759Y410316D01*
X199804Y410212D01*
X199844Y410106D01*
X199881Y409999D01*
X199914Y409891D01*
X199944Y409781D01*
X199969Y409671D01*
X199991Y409560D01*
X200008Y409448D01*
X200022Y409335D01*
X200032Y409222D01*
X200038Y409109D01*
X200040Y408996D01*
X200038Y408883D01*
X200032Y408770D01*
X200022Y408657D01*
X200008Y408544D01*
X199991Y408432D01*
X199969Y408321D01*
X199944Y408211D01*
X199914Y408101D01*
X199881Y407993D01*
X199844Y407886D01*
X199804Y407780D01*
X199759Y407676D01*
X199711Y407573D01*
X199660Y407472D01*
X199605Y407373D01*
X199547Y407276D01*
X199485Y407181D01*
X199420Y407088D01*
X199352Y406998D01*
X199281Y406910D01*
X199206Y406824D01*
X199129Y406741D01*
X199049Y406661D01*
X198966Y406584D01*
X198880Y406509D01*
X198792Y406438D01*
X198702Y406370D01*
X198609Y406305D01*
X198514Y406243D01*
X198417Y406185D01*
X198318Y406130D01*
X198217Y406079D01*
X198114Y406031D01*
X198010Y405986D01*
X197904Y405946D01*
X197797Y405909D01*
X197689Y405876D01*
X197579Y405846D01*
X197469Y405821D01*
X197358Y405799D01*
X197246Y405782D01*
X197133Y405768D01*
X197020Y405758D01*
X196907Y405752D01*
X196794Y405750D01*
X196794Y405751D02*
X193548Y405751D01*
X197443Y405751D02*
X200039Y400558D01*
X204904Y409646D02*
X208150Y412242D01*
X208150Y400558D01*
X211395Y400558D02*
X204904Y400558D01*
X128778Y400558D02*
X128778Y412242D01*
X132024Y412242D01*
X132137Y412240D01*
X132250Y412234D01*
X132363Y412224D01*
X132476Y412210D01*
X132588Y412193D01*
X132699Y412171D01*
X132809Y412146D01*
X132919Y412116D01*
X133027Y412083D01*
X133134Y412046D01*
X133240Y412006D01*
X133344Y411961D01*
X133447Y411913D01*
X133548Y411862D01*
X133647Y411807D01*
X133744Y411749D01*
X133839Y411687D01*
X133932Y411622D01*
X134022Y411554D01*
X134110Y411483D01*
X134196Y411408D01*
X134279Y411331D01*
X134359Y411251D01*
X134436Y411168D01*
X134511Y411082D01*
X134582Y410994D01*
X134650Y410904D01*
X134715Y410811D01*
X134777Y410716D01*
X134835Y410619D01*
X134890Y410520D01*
X134941Y410419D01*
X134989Y410316D01*
X135034Y410212D01*
X135074Y410106D01*
X135111Y409999D01*
X135144Y409891D01*
X135174Y409781D01*
X135199Y409671D01*
X135221Y409560D01*
X135238Y409448D01*
X135252Y409335D01*
X135262Y409222D01*
X135268Y409109D01*
X135270Y408996D01*
X135268Y408883D01*
X135262Y408770D01*
X135252Y408657D01*
X135238Y408544D01*
X135221Y408432D01*
X135199Y408321D01*
X135174Y408211D01*
X135144Y408101D01*
X135111Y407993D01*
X135074Y407886D01*
X135034Y407780D01*
X134989Y407676D01*
X134941Y407573D01*
X134890Y407472D01*
X134835Y407373D01*
X134777Y407276D01*
X134715Y407181D01*
X134650Y407088D01*
X134582Y406998D01*
X134511Y406910D01*
X134436Y406824D01*
X134359Y406741D01*
X134279Y406661D01*
X134196Y406584D01*
X134110Y406509D01*
X134022Y406438D01*
X133932Y406370D01*
X133839Y406305D01*
X133744Y406243D01*
X133647Y406185D01*
X133548Y406130D01*
X133447Y406079D01*
X133344Y406031D01*
X133240Y405986D01*
X133134Y405946D01*
X133027Y405909D01*
X132919Y405876D01*
X132809Y405846D01*
X132699Y405821D01*
X132588Y405799D01*
X132476Y405782D01*
X132363Y405768D01*
X132250Y405758D01*
X132137Y405752D01*
X132024Y405750D01*
X132024Y405751D02*
X128778Y405751D01*
X132673Y405751D02*
X135269Y400558D01*
X146625Y409321D02*
X146623Y409428D01*
X146617Y409534D01*
X146607Y409640D01*
X146594Y409746D01*
X146576Y409852D01*
X146555Y409956D01*
X146530Y410060D01*
X146501Y410163D01*
X146469Y410264D01*
X146432Y410364D01*
X146392Y410463D01*
X146349Y410561D01*
X146302Y410657D01*
X146251Y410751D01*
X146197Y410843D01*
X146140Y410933D01*
X146080Y411021D01*
X146016Y411106D01*
X145949Y411189D01*
X145879Y411270D01*
X145807Y411348D01*
X145731Y411424D01*
X145653Y411496D01*
X145572Y411566D01*
X145489Y411633D01*
X145404Y411697D01*
X145316Y411757D01*
X145226Y411814D01*
X145134Y411868D01*
X145040Y411919D01*
X144944Y411966D01*
X144846Y412009D01*
X144747Y412049D01*
X144647Y412086D01*
X144546Y412118D01*
X144443Y412147D01*
X144339Y412172D01*
X144235Y412193D01*
X144129Y412211D01*
X144023Y412224D01*
X143917Y412234D01*
X143811Y412240D01*
X143704Y412242D01*
X143583Y412240D01*
X143462Y412234D01*
X143342Y412224D01*
X143221Y412211D01*
X143102Y412193D01*
X142982Y412172D01*
X142864Y412147D01*
X142747Y412118D01*
X142630Y412085D01*
X142515Y412049D01*
X142401Y412008D01*
X142288Y411965D01*
X142176Y411917D01*
X142067Y411866D01*
X141959Y411811D01*
X141852Y411753D01*
X141748Y411692D01*
X141646Y411627D01*
X141546Y411559D01*
X141448Y411488D01*
X141352Y411414D01*
X141259Y411337D01*
X141169Y411256D01*
X141081Y411173D01*
X140996Y411087D01*
X140913Y410998D01*
X140834Y410907D01*
X140757Y410813D01*
X140684Y410717D01*
X140614Y410619D01*
X140547Y410518D01*
X140483Y410415D01*
X140423Y410310D01*
X140366Y410203D01*
X140312Y410095D01*
X140262Y409985D01*
X140216Y409873D01*
X140173Y409760D01*
X140134Y409645D01*
X145652Y407049D02*
X145731Y407126D01*
X145807Y407207D01*
X145880Y407290D01*
X145950Y407375D01*
X146017Y407463D01*
X146081Y407553D01*
X146141Y407645D01*
X146198Y407740D01*
X146252Y407836D01*
X146303Y407934D01*
X146350Y408034D01*
X146394Y408136D01*
X146434Y408239D01*
X146470Y408343D01*
X146502Y408449D01*
X146531Y408555D01*
X146556Y408663D01*
X146578Y408771D01*
X146595Y408881D01*
X146609Y408990D01*
X146618Y409100D01*
X146624Y409211D01*
X146626Y409321D01*
X145652Y407049D02*
X140134Y400558D01*
X146625Y400558D01*
X22528Y411828D02*
X22528Y423512D01*
X25774Y423512D01*
X25887Y423510D01*
X26000Y423504D01*
X26113Y423494D01*
X26226Y423480D01*
X26338Y423463D01*
X26449Y423441D01*
X26559Y423416D01*
X26669Y423386D01*
X26777Y423353D01*
X26884Y423316D01*
X26990Y423276D01*
X27094Y423231D01*
X27197Y423183D01*
X27298Y423132D01*
X27397Y423077D01*
X27494Y423019D01*
X27589Y422957D01*
X27682Y422892D01*
X27772Y422824D01*
X27860Y422753D01*
X27946Y422678D01*
X28029Y422601D01*
X28109Y422521D01*
X28186Y422438D01*
X28261Y422352D01*
X28332Y422264D01*
X28400Y422174D01*
X28465Y422081D01*
X28527Y421986D01*
X28585Y421889D01*
X28640Y421790D01*
X28691Y421689D01*
X28739Y421586D01*
X28784Y421482D01*
X28824Y421376D01*
X28861Y421269D01*
X28894Y421161D01*
X28924Y421051D01*
X28949Y420941D01*
X28971Y420830D01*
X28988Y420718D01*
X29002Y420605D01*
X29012Y420492D01*
X29018Y420379D01*
X29020Y420266D01*
X29019Y420266D02*
X29019Y415074D01*
X29020Y415074D02*
X29018Y414961D01*
X29012Y414848D01*
X29002Y414735D01*
X28988Y414622D01*
X28971Y414510D01*
X28949Y414399D01*
X28924Y414289D01*
X28894Y414179D01*
X28861Y414071D01*
X28824Y413964D01*
X28784Y413858D01*
X28739Y413754D01*
X28691Y413651D01*
X28640Y413550D01*
X28585Y413451D01*
X28527Y413354D01*
X28465Y413259D01*
X28400Y413166D01*
X28332Y413076D01*
X28261Y412988D01*
X28186Y412902D01*
X28109Y412819D01*
X28029Y412739D01*
X27946Y412662D01*
X27860Y412587D01*
X27772Y412516D01*
X27682Y412448D01*
X27589Y412383D01*
X27494Y412321D01*
X27397Y412263D01*
X27298Y412208D01*
X27197Y412157D01*
X27094Y412109D01*
X26990Y412064D01*
X26884Y412024D01*
X26777Y411987D01*
X26669Y411954D01*
X26559Y411924D01*
X26449Y411899D01*
X26338Y411877D01*
X26226Y411860D01*
X26113Y411846D01*
X26000Y411836D01*
X25887Y411830D01*
X25774Y411828D01*
X22528Y411828D01*
X34339Y411828D02*
X38234Y411828D01*
X38333Y411830D01*
X38433Y411836D01*
X38532Y411845D01*
X38630Y411858D01*
X38728Y411875D01*
X38826Y411896D01*
X38922Y411921D01*
X39017Y411949D01*
X39111Y411981D01*
X39204Y412016D01*
X39296Y412055D01*
X39386Y412098D01*
X39474Y412143D01*
X39561Y412193D01*
X39645Y412245D01*
X39728Y412301D01*
X39808Y412359D01*
X39886Y412421D01*
X39961Y412486D01*
X40034Y412554D01*
X40104Y412624D01*
X40172Y412697D01*
X40237Y412772D01*
X40299Y412850D01*
X40357Y412930D01*
X40413Y413013D01*
X40465Y413097D01*
X40515Y413184D01*
X40560Y413272D01*
X40603Y413362D01*
X40642Y413454D01*
X40677Y413547D01*
X40709Y413641D01*
X40737Y413736D01*
X40762Y413832D01*
X40783Y413930D01*
X40800Y414028D01*
X40813Y414126D01*
X40822Y414225D01*
X40828Y414325D01*
X40830Y414424D01*
X40830Y415723D01*
X40828Y415822D01*
X40822Y415922D01*
X40813Y416021D01*
X40800Y416119D01*
X40783Y416217D01*
X40762Y416315D01*
X40737Y416411D01*
X40709Y416506D01*
X40677Y416600D01*
X40642Y416693D01*
X40603Y416785D01*
X40560Y416875D01*
X40515Y416963D01*
X40465Y417050D01*
X40413Y417134D01*
X40357Y417217D01*
X40299Y417297D01*
X40237Y417375D01*
X40172Y417450D01*
X40104Y417523D01*
X40034Y417593D01*
X39961Y417661D01*
X39886Y417726D01*
X39808Y417788D01*
X39728Y417846D01*
X39645Y417902D01*
X39561Y417954D01*
X39474Y418004D01*
X39386Y418049D01*
X39296Y418092D01*
X39204Y418131D01*
X39111Y418166D01*
X39017Y418198D01*
X38922Y418226D01*
X38826Y418251D01*
X38728Y418272D01*
X38630Y418289D01*
X38532Y418302D01*
X38433Y418311D01*
X38333Y418317D01*
X38234Y418319D01*
X34339Y418319D01*
X34339Y423512D01*
X40830Y423512D01*
D13*
X92550Y404090D02*
X92550Y401090D01*
X72550Y401090D01*
X72550Y404090D01*
X92550Y404090D01*
X94050Y407590D02*
X94050Y417590D01*
D12*
X73733Y379786D02*
X73733Y374594D01*
X73732Y379786D02*
X73734Y379899D01*
X73740Y380012D01*
X73750Y380125D01*
X73764Y380238D01*
X73781Y380350D01*
X73803Y380461D01*
X73828Y380571D01*
X73858Y380681D01*
X73891Y380789D01*
X73928Y380896D01*
X73968Y381002D01*
X74013Y381106D01*
X74061Y381209D01*
X74112Y381310D01*
X74167Y381409D01*
X74225Y381506D01*
X74287Y381601D01*
X74352Y381694D01*
X74420Y381784D01*
X74491Y381872D01*
X74566Y381958D01*
X74643Y382041D01*
X74723Y382121D01*
X74806Y382198D01*
X74892Y382273D01*
X74980Y382344D01*
X75070Y382412D01*
X75163Y382477D01*
X75258Y382539D01*
X75355Y382597D01*
X75454Y382652D01*
X75555Y382703D01*
X75658Y382751D01*
X75762Y382796D01*
X75868Y382836D01*
X75975Y382873D01*
X76083Y382906D01*
X76193Y382936D01*
X76303Y382961D01*
X76414Y382983D01*
X76526Y383000D01*
X76639Y383014D01*
X76752Y383024D01*
X76865Y383030D01*
X76978Y383032D01*
X77091Y383030D01*
X77204Y383024D01*
X77317Y383014D01*
X77430Y383000D01*
X77542Y382983D01*
X77653Y382961D01*
X77763Y382936D01*
X77873Y382906D01*
X77981Y382873D01*
X78088Y382836D01*
X78194Y382796D01*
X78298Y382751D01*
X78401Y382703D01*
X78502Y382652D01*
X78601Y382597D01*
X78698Y382539D01*
X78793Y382477D01*
X78886Y382412D01*
X78976Y382344D01*
X79064Y382273D01*
X79150Y382198D01*
X79233Y382121D01*
X79313Y382041D01*
X79390Y381958D01*
X79465Y381872D01*
X79536Y381784D01*
X79604Y381694D01*
X79669Y381601D01*
X79731Y381506D01*
X79789Y381409D01*
X79844Y381310D01*
X79895Y381209D01*
X79943Y381106D01*
X79988Y381002D01*
X80028Y380896D01*
X80065Y380789D01*
X80098Y380681D01*
X80128Y380571D01*
X80153Y380461D01*
X80175Y380350D01*
X80192Y380238D01*
X80206Y380125D01*
X80216Y380012D01*
X80222Y379899D01*
X80224Y379786D01*
X80224Y374594D01*
X80222Y374481D01*
X80216Y374368D01*
X80206Y374255D01*
X80192Y374142D01*
X80175Y374030D01*
X80153Y373919D01*
X80128Y373809D01*
X80098Y373699D01*
X80065Y373591D01*
X80028Y373484D01*
X79988Y373378D01*
X79943Y373274D01*
X79895Y373171D01*
X79844Y373070D01*
X79789Y372971D01*
X79731Y372874D01*
X79669Y372779D01*
X79604Y372686D01*
X79536Y372596D01*
X79465Y372508D01*
X79390Y372422D01*
X79313Y372339D01*
X79233Y372259D01*
X79150Y372182D01*
X79064Y372107D01*
X78976Y372036D01*
X78886Y371968D01*
X78793Y371903D01*
X78698Y371841D01*
X78601Y371783D01*
X78502Y371728D01*
X78401Y371677D01*
X78298Y371629D01*
X78194Y371584D01*
X78088Y371544D01*
X77981Y371507D01*
X77873Y371474D01*
X77763Y371444D01*
X77653Y371419D01*
X77542Y371397D01*
X77430Y371380D01*
X77317Y371366D01*
X77204Y371356D01*
X77091Y371350D01*
X76978Y371348D01*
X76865Y371350D01*
X76752Y371356D01*
X76639Y371366D01*
X76526Y371380D01*
X76414Y371397D01*
X76303Y371419D01*
X76193Y371444D01*
X76083Y371474D01*
X75975Y371507D01*
X75868Y371544D01*
X75762Y371584D01*
X75658Y371629D01*
X75555Y371677D01*
X75454Y371728D01*
X75355Y371783D01*
X75258Y371841D01*
X75163Y371903D01*
X75070Y371968D01*
X74980Y372036D01*
X74892Y372107D01*
X74806Y372182D01*
X74723Y372259D01*
X74643Y372339D01*
X74566Y372422D01*
X74491Y372508D01*
X74420Y372596D01*
X74352Y372686D01*
X74287Y372779D01*
X74225Y372874D01*
X74167Y372971D01*
X74112Y373070D01*
X74061Y373171D01*
X74013Y373274D01*
X73968Y373378D01*
X73928Y373484D01*
X73891Y373591D01*
X73858Y373699D01*
X73828Y373809D01*
X73803Y373919D01*
X73781Y374030D01*
X73764Y374142D01*
X73750Y374255D01*
X73740Y374368D01*
X73734Y374481D01*
X73732Y374594D01*
X78925Y373944D02*
X81522Y371348D01*
X91368Y380111D02*
X91366Y380218D01*
X91360Y380324D01*
X91350Y380430D01*
X91337Y380536D01*
X91319Y380642D01*
X91298Y380746D01*
X91273Y380850D01*
X91244Y380953D01*
X91212Y381054D01*
X91175Y381154D01*
X91135Y381253D01*
X91092Y381351D01*
X91045Y381447D01*
X90994Y381541D01*
X90940Y381633D01*
X90883Y381723D01*
X90823Y381811D01*
X90759Y381896D01*
X90692Y381979D01*
X90622Y382060D01*
X90550Y382138D01*
X90474Y382214D01*
X90396Y382286D01*
X90315Y382356D01*
X90232Y382423D01*
X90147Y382487D01*
X90059Y382547D01*
X89969Y382604D01*
X89877Y382658D01*
X89783Y382709D01*
X89687Y382756D01*
X89589Y382799D01*
X89490Y382839D01*
X89390Y382876D01*
X89289Y382908D01*
X89186Y382937D01*
X89082Y382962D01*
X88978Y382983D01*
X88872Y383001D01*
X88766Y383014D01*
X88660Y383024D01*
X88554Y383030D01*
X88447Y383032D01*
X88326Y383030D01*
X88205Y383024D01*
X88085Y383014D01*
X87964Y383001D01*
X87845Y382983D01*
X87725Y382962D01*
X87607Y382937D01*
X87490Y382908D01*
X87373Y382875D01*
X87258Y382839D01*
X87144Y382798D01*
X87031Y382755D01*
X86919Y382707D01*
X86810Y382656D01*
X86702Y382601D01*
X86595Y382543D01*
X86491Y382482D01*
X86389Y382417D01*
X86289Y382349D01*
X86191Y382278D01*
X86095Y382204D01*
X86002Y382127D01*
X85912Y382046D01*
X85824Y381963D01*
X85739Y381877D01*
X85656Y381788D01*
X85577Y381697D01*
X85500Y381603D01*
X85427Y381507D01*
X85357Y381409D01*
X85290Y381308D01*
X85226Y381205D01*
X85166Y381100D01*
X85109Y380993D01*
X85055Y380885D01*
X85005Y380775D01*
X84959Y380663D01*
X84916Y380550D01*
X84877Y380435D01*
X90394Y377839D02*
X90473Y377916D01*
X90549Y377997D01*
X90622Y378080D01*
X90692Y378165D01*
X90759Y378253D01*
X90823Y378343D01*
X90883Y378435D01*
X90940Y378530D01*
X90994Y378626D01*
X91045Y378724D01*
X91092Y378824D01*
X91136Y378926D01*
X91176Y379029D01*
X91212Y379133D01*
X91244Y379239D01*
X91273Y379345D01*
X91298Y379453D01*
X91320Y379561D01*
X91337Y379671D01*
X91351Y379780D01*
X91360Y379890D01*
X91366Y380001D01*
X91368Y380111D01*
X90394Y377839D02*
X84876Y371348D01*
X91368Y371348D01*
D10*
X273050Y412750D02*
X285750Y412750D01*
X273050Y412750D02*
X266700Y419100D01*
X266700Y431800D01*
X273050Y438150D01*
X292100Y431800D02*
X292100Y419100D01*
X285750Y412750D01*
X292100Y431800D02*
X285750Y438150D01*
X273050Y438150D01*
X266700Y419100D02*
X260350Y412750D01*
X247650Y412750D01*
X241300Y419100D01*
X241300Y431800D01*
X247650Y438150D01*
X260350Y438150D01*
X266700Y431800D01*
D11*
X255068Y411607D02*
X255068Y402717D01*
X255066Y402617D01*
X255060Y402518D01*
X255050Y402418D01*
X255037Y402320D01*
X255019Y402221D01*
X254998Y402124D01*
X254973Y402028D01*
X254944Y401932D01*
X254911Y401838D01*
X254875Y401745D01*
X254835Y401654D01*
X254791Y401564D01*
X254744Y401476D01*
X254694Y401390D01*
X254640Y401306D01*
X254583Y401224D01*
X254523Y401145D01*
X254459Y401067D01*
X254393Y400993D01*
X254324Y400921D01*
X254252Y400852D01*
X254178Y400786D01*
X254100Y400722D01*
X254021Y400662D01*
X253939Y400605D01*
X253855Y400551D01*
X253769Y400501D01*
X253681Y400454D01*
X253591Y400410D01*
X253500Y400370D01*
X253407Y400334D01*
X253313Y400301D01*
X253217Y400272D01*
X253121Y400247D01*
X253024Y400226D01*
X252925Y400208D01*
X252827Y400195D01*
X252727Y400185D01*
X252628Y400179D01*
X252528Y400177D01*
X251258Y400177D01*
X261049Y400177D02*
X261049Y411607D01*
X264224Y411607D01*
X264335Y411605D01*
X264445Y411599D01*
X264556Y411590D01*
X264666Y411576D01*
X264775Y411559D01*
X264884Y411538D01*
X264992Y411513D01*
X265099Y411484D01*
X265205Y411452D01*
X265310Y411416D01*
X265413Y411376D01*
X265515Y411333D01*
X265616Y411286D01*
X265715Y411235D01*
X265812Y411182D01*
X265906Y411125D01*
X265999Y411064D01*
X266090Y411001D01*
X266179Y410934D01*
X266265Y410864D01*
X266348Y410791D01*
X266430Y410716D01*
X266508Y410638D01*
X266583Y410556D01*
X266656Y410473D01*
X266726Y410387D01*
X266793Y410298D01*
X266856Y410207D01*
X266917Y410114D01*
X266974Y410019D01*
X267027Y409923D01*
X267078Y409824D01*
X267125Y409723D01*
X267168Y409621D01*
X267208Y409518D01*
X267244Y409413D01*
X267276Y409307D01*
X267305Y409200D01*
X267330Y409092D01*
X267351Y408983D01*
X267368Y408874D01*
X267382Y408764D01*
X267391Y408653D01*
X267397Y408543D01*
X267399Y408432D01*
X267397Y408321D01*
X267391Y408211D01*
X267382Y408100D01*
X267368Y407990D01*
X267351Y407881D01*
X267330Y407772D01*
X267305Y407664D01*
X267276Y407557D01*
X267244Y407451D01*
X267208Y407346D01*
X267168Y407243D01*
X267125Y407141D01*
X267078Y407040D01*
X267027Y406941D01*
X266974Y406844D01*
X266917Y406750D01*
X266856Y406657D01*
X266793Y406566D01*
X266726Y406477D01*
X266656Y406391D01*
X266583Y406308D01*
X266508Y406226D01*
X266430Y406148D01*
X266348Y406073D01*
X266265Y406000D01*
X266179Y405930D01*
X266090Y405863D01*
X265999Y405800D01*
X265906Y405739D01*
X265812Y405682D01*
X265715Y405629D01*
X265616Y405578D01*
X265515Y405531D01*
X265413Y405488D01*
X265310Y405448D01*
X265205Y405412D01*
X265099Y405380D01*
X264992Y405351D01*
X264884Y405326D01*
X264775Y405305D01*
X264666Y405288D01*
X264556Y405274D01*
X264445Y405265D01*
X264335Y405259D01*
X264224Y405257D01*
X261049Y405257D01*
X271907Y400177D02*
X275082Y400177D01*
X275193Y400179D01*
X275303Y400185D01*
X275414Y400194D01*
X275524Y400208D01*
X275633Y400225D01*
X275742Y400246D01*
X275850Y400271D01*
X275957Y400300D01*
X276063Y400332D01*
X276168Y400368D01*
X276271Y400408D01*
X276373Y400451D01*
X276474Y400498D01*
X276573Y400549D01*
X276670Y400602D01*
X276764Y400659D01*
X276857Y400720D01*
X276948Y400783D01*
X277037Y400850D01*
X277123Y400920D01*
X277206Y400993D01*
X277288Y401068D01*
X277366Y401146D01*
X277441Y401228D01*
X277514Y401311D01*
X277584Y401397D01*
X277651Y401486D01*
X277714Y401577D01*
X277775Y401670D01*
X277832Y401764D01*
X277885Y401861D01*
X277936Y401960D01*
X277983Y402061D01*
X278026Y402163D01*
X278066Y402266D01*
X278102Y402371D01*
X278134Y402477D01*
X278163Y402584D01*
X278188Y402692D01*
X278209Y402801D01*
X278226Y402910D01*
X278240Y403020D01*
X278249Y403131D01*
X278255Y403241D01*
X278257Y403352D01*
X278255Y403463D01*
X278249Y403573D01*
X278240Y403684D01*
X278226Y403794D01*
X278209Y403903D01*
X278188Y404012D01*
X278163Y404120D01*
X278134Y404227D01*
X278102Y404333D01*
X278066Y404438D01*
X278026Y404541D01*
X277983Y404643D01*
X277936Y404744D01*
X277885Y404843D01*
X277832Y404939D01*
X277775Y405034D01*
X277714Y405127D01*
X277651Y405218D01*
X277584Y405307D01*
X277514Y405393D01*
X277441Y405476D01*
X277366Y405558D01*
X277288Y405636D01*
X277206Y405711D01*
X277123Y405784D01*
X277037Y405854D01*
X276948Y405921D01*
X276857Y405984D01*
X276764Y406045D01*
X276670Y406102D01*
X276573Y406155D01*
X276474Y406206D01*
X276373Y406253D01*
X276271Y406296D01*
X276168Y406336D01*
X276063Y406372D01*
X275957Y406404D01*
X275850Y406433D01*
X275742Y406458D01*
X275633Y406479D01*
X275524Y406496D01*
X275414Y406510D01*
X275303Y406519D01*
X275193Y406525D01*
X275082Y406527D01*
X275717Y411607D02*
X271907Y411607D01*
X275717Y411607D02*
X275817Y411605D01*
X275916Y411599D01*
X276016Y411589D01*
X276114Y411576D01*
X276213Y411558D01*
X276310Y411537D01*
X276406Y411512D01*
X276502Y411483D01*
X276596Y411450D01*
X276689Y411414D01*
X276780Y411374D01*
X276870Y411330D01*
X276958Y411283D01*
X277044Y411233D01*
X277128Y411179D01*
X277210Y411122D01*
X277289Y411062D01*
X277367Y410998D01*
X277441Y410932D01*
X277513Y410863D01*
X277582Y410791D01*
X277648Y410717D01*
X277712Y410639D01*
X277772Y410560D01*
X277829Y410478D01*
X277883Y410394D01*
X277933Y410308D01*
X277980Y410220D01*
X278024Y410130D01*
X278064Y410039D01*
X278100Y409946D01*
X278133Y409852D01*
X278162Y409756D01*
X278187Y409660D01*
X278208Y409563D01*
X278226Y409464D01*
X278239Y409366D01*
X278249Y409266D01*
X278255Y409167D01*
X278257Y409067D01*
X278255Y408967D01*
X278249Y408868D01*
X278239Y408768D01*
X278226Y408670D01*
X278208Y408571D01*
X278187Y408474D01*
X278162Y408378D01*
X278133Y408282D01*
X278100Y408188D01*
X278064Y408095D01*
X278024Y408004D01*
X277980Y407914D01*
X277933Y407826D01*
X277883Y407740D01*
X277829Y407656D01*
X277772Y407574D01*
X277712Y407495D01*
X277648Y407417D01*
X277582Y407343D01*
X277513Y407271D01*
X277441Y407202D01*
X277367Y407136D01*
X277289Y407072D01*
X277210Y407012D01*
X277128Y406955D01*
X277044Y406901D01*
X276958Y406851D01*
X276870Y406804D01*
X276780Y406760D01*
X276689Y406720D01*
X276596Y406684D01*
X276502Y406651D01*
X276406Y406622D01*
X276310Y406597D01*
X276213Y406576D01*
X276114Y406558D01*
X276016Y406545D01*
X275916Y406535D01*
X275817Y406529D01*
X275717Y406527D01*
X273177Y406527D01*
M02*
